<svg xmlns="http://www.w3.org/2000/svg" width="419" height="475.473" viewBox="0 0 419 475.473">
  <g id="Colors" transform="translate(-0.227)">
    <g id="Group_13" data-name="Group 13" transform="translate(50.227 110)" opacity="0.379">
      <path id="Fill_156" data-name="Fill 156" d="M-1.266,2.535A1.266,1.266,0,0,1-2.532,1.268,1.267,1.267,0,0,1-1.266,0,1.267,1.267,0,0,1,0,1.268,1.266,1.266,0,0,1-1.266,2.535" transform="translate(276.026)" fill="#937bff"/>
      <path id="Fill_157" data-name="Fill 157" d="M-1.266,2.535A1.266,1.266,0,0,1-2.532,1.268,1.267,1.267,0,0,1-1.266,0,1.267,1.267,0,0,1,0,1.268,1.266,1.266,0,0,1-1.266,2.535" transform="translate(253.235)" fill="#937bff"/>
      <path id="Fill_158" data-name="Fill 158" d="M-1.266,2.535A1.266,1.266,0,0,1-2.532,1.268,1.267,1.267,0,0,1-1.266,0,1.267,1.267,0,0,1,0,1.268,1.266,1.266,0,0,1-1.266,2.535" transform="translate(231.288)" fill="#937bff"/>
      <path id="Fill_159" data-name="Fill 159" d="M-1.266,2.535A1.267,1.267,0,0,1-2.532,1.268,1.268,1.268,0,0,1-1.266,0,1.267,1.267,0,0,1,0,1.268,1.266,1.266,0,0,1-1.266,2.535" transform="translate(209.341)" fill="#937bff"/>
      <path id="Fill_175" data-name="Fill 175" d="M-1.266,2.535A1.266,1.266,0,0,1-2.532,1.268,1.267,1.267,0,0,1-1.266,0,1.267,1.267,0,0,1,0,1.268,1.266,1.266,0,0,1-1.266,2.535" transform="translate(287 21.973)" fill="#937bff"/>
      <path id="Fill_176" data-name="Fill 176" d="M-1.266,2.535A1.267,1.267,0,0,1-2.532,1.268,1.268,1.268,0,0,1-1.266,0,1.267,1.267,0,0,1,0,1.268,1.266,1.266,0,0,1-1.266,2.535" transform="translate(264.209 21.973)" fill="#937bff"/>
      <path id="Fill_177" data-name="Fill 177" d="M-1.266,2.535A1.266,1.266,0,0,1-2.532,1.268,1.267,1.267,0,0,1-1.266,0,1.268,1.268,0,0,1,0,1.268,1.267,1.267,0,0,1-1.266,2.535" transform="translate(242.262 21.973)" fill="#937bff"/>
      <path id="Fill_178" data-name="Fill 178" d="M-1.266,2.535A1.266,1.266,0,0,1-2.532,1.268,1.267,1.267,0,0,1-1.266,0,1.267,1.267,0,0,1,0,1.268,1.266,1.266,0,0,1-1.266,2.535" transform="translate(218.626 21.973)" fill="#937bff"/>
      <path id="Fill_179" data-name="Fill 179" d="M-1.266,2.535A1.266,1.266,0,0,1-2.532,1.268,1.267,1.267,0,0,1-1.266,0,1.267,1.267,0,0,1,0,1.268,1.266,1.266,0,0,1-1.266,2.535" transform="translate(200.9 21.973)" fill="#937bff"/>
      <path id="Fill_196" data-name="Fill 196" d="M-1.266,2.535A1.267,1.267,0,0,1-2.532,1.268,1.267,1.267,0,0,1-1.266,0,1.267,1.267,0,0,1,0,1.268,1.267,1.267,0,0,1-1.266,2.535" transform="translate(276.026 45.636)" fill="#937bff"/>
      <path id="Fill_197" data-name="Fill 197" d="M-1.266,2.535A1.267,1.267,0,0,1-2.532,1.268,1.267,1.267,0,0,1-1.266,0,1.267,1.267,0,0,1,0,1.268,1.267,1.267,0,0,1-1.266,2.535" transform="translate(253.235 45.636)" fill="#937bff"/>
      <path id="Fill_198" data-name="Fill 198" d="M-1.266,2.535A1.268,1.268,0,0,1-2.532,1.268,1.267,1.267,0,0,1-1.266,0,1.267,1.267,0,0,1,0,1.268,1.267,1.267,0,0,1-1.266,2.535" transform="translate(231.288 45.636)" fill="#937bff"/>
      <path id="Fill_199" data-name="Fill 199" d="M-1.266,2.535A1.268,1.268,0,0,1-2.532,1.268,1.267,1.267,0,0,1-1.266,0,1.267,1.267,0,0,1,0,1.268,1.267,1.267,0,0,1-1.266,2.535" transform="translate(209.341 45.636)" fill="#937bff"/>
      <path id="Fill_215" data-name="Fill 215" d="M-1.266,2.535A1.268,1.268,0,0,1-2.532,1.268,1.267,1.267,0,0,1-1.266,0,1.267,1.267,0,0,1,0,1.268,1.267,1.267,0,0,1-1.266,2.535" transform="translate(287 67.609)" fill="#937bff"/>
      <path id="Fill_216" data-name="Fill 216" d="M-1.266,2.535A1.268,1.268,0,0,1-2.532,1.268,1.267,1.267,0,0,1-1.266,0,1.267,1.267,0,0,1,0,1.268,1.267,1.267,0,0,1-1.266,2.535" transform="translate(264.209 67.609)" fill="#937bff"/>
      <path id="Fill_217" data-name="Fill 217" d="M-1.266,2.535A1.267,1.267,0,0,1-2.532,1.268,1.267,1.267,0,0,1-1.266,0,1.267,1.267,0,0,1,0,1.268,1.268,1.268,0,0,1-1.266,2.535" transform="translate(242.262 67.609)" fill="#937bff"/>
      <path id="Fill_218" data-name="Fill 218" d="M-1.266,2.535A1.267,1.267,0,0,1-2.532,1.268,1.267,1.267,0,0,1-1.266,0,1.267,1.267,0,0,1,0,1.268,1.267,1.267,0,0,1-1.266,2.535" transform="translate(218.626 67.609)" fill="#937bff"/>
      <path id="Fill_219" data-name="Fill 219" d="M-1.266,2.535A1.267,1.267,0,0,1-2.532,1.268,1.267,1.267,0,0,1-1.266,0,1.267,1.267,0,0,1,0,1.268,1.267,1.267,0,0,1-1.266,2.535" transform="translate(200.9 67.609)" fill="#937bff"/>
      <path id="Fill_236" data-name="Fill 236" d="M-1.266,2.535A1.267,1.267,0,0,1-2.532,1.268,1.267,1.267,0,0,1-1.266,0,1.267,1.267,0,0,1,0,1.268,1.267,1.267,0,0,1-1.266,2.535" transform="translate(276.026 92.118)" fill="#937bff"/>
      <path id="Fill_237" data-name="Fill 237" d="M-1.266,2.535A1.267,1.267,0,0,1-2.532,1.268,1.267,1.267,0,0,1-1.266,0,1.267,1.267,0,0,1,0,1.268,1.267,1.267,0,0,1-1.266,2.535" transform="translate(253.235 92.118)" fill="#937bff"/>
      <path id="Fill_238" data-name="Fill 238" d="M-1.266,2.535A1.268,1.268,0,0,1-2.532,1.268,1.267,1.267,0,0,1-1.266,0,1.267,1.267,0,0,1,0,1.268,1.267,1.267,0,0,1-1.266,2.535" transform="translate(231.288 92.118)" fill="#937bff"/>
      <path id="Fill_239" data-name="Fill 239" d="M-1.266,2.535A1.268,1.268,0,0,1-2.532,1.268,1.267,1.267,0,0,1-1.266,0,1.267,1.267,0,0,1,0,1.268,1.267,1.267,0,0,1-1.266,2.535" transform="translate(209.341 92.118)" fill="#937bff"/>
      <path id="Fill_255" data-name="Fill 255" d="M-1.266,2.535A1.266,1.266,0,0,1-2.532,1.268,1.267,1.267,0,0,1-1.266,0,1.267,1.267,0,0,1,0,1.268,1.266,1.266,0,0,1-1.266,2.535" transform="translate(287 113.246)" fill="#937bff"/>
      <path id="Fill_256" data-name="Fill 256" d="M-1.266,2.535A1.267,1.267,0,0,1-2.532,1.268,1.268,1.268,0,0,1-1.266,0,1.267,1.267,0,0,1,0,1.268,1.266,1.266,0,0,1-1.266,2.535" transform="translate(264.209 113.246)" fill="#937bff"/>
      <path id="Fill_257" data-name="Fill 257" d="M-1.266,2.535A1.266,1.266,0,0,1-2.532,1.268,1.267,1.267,0,0,1-1.266,0,1.268,1.268,0,0,1,0,1.268,1.267,1.267,0,0,1-1.266,2.535" transform="translate(242.262 113.246)" fill="#937bff"/>
      <path id="Fill_258" data-name="Fill 258" d="M-1.266,2.535A1.266,1.266,0,0,1-2.532,1.268,1.267,1.267,0,0,1-1.266,0,1.267,1.267,0,0,1,0,1.268,1.266,1.266,0,0,1-1.266,2.535" transform="translate(218.626 113.246)" fill="#937bff"/>
      <path id="Fill_259" data-name="Fill 259" d="M-1.266,2.535A1.266,1.266,0,0,1-2.532,1.268,1.267,1.267,0,0,1-1.266,0,1.267,1.267,0,0,1,0,1.268,1.266,1.266,0,0,1-1.266,2.535" transform="translate(200.9 113.246)" fill="#937bff"/>
      <path id="Fill_276" data-name="Fill 276" d="M-1.266,2.535A1.266,1.266,0,0,1-2.532,1.268,1.267,1.267,0,0,1-1.266,0,1.267,1.267,0,0,1,0,1.268,1.266,1.266,0,0,1-1.266,2.535" transform="translate(276.026 136.064)" fill="#937bff"/>
      <path id="Fill_277" data-name="Fill 277" d="M-1.266,2.535A1.266,1.266,0,0,1-2.532,1.268,1.267,1.267,0,0,1-1.266,0,1.267,1.267,0,0,1,0,1.268,1.266,1.266,0,0,1-1.266,2.535" transform="translate(253.235 136.064)" fill="#937bff"/>
      <path id="Fill_278" data-name="Fill 278" d="M-1.266,2.535A1.266,1.266,0,0,1-2.532,1.268,1.267,1.267,0,0,1-1.266,0,1.267,1.267,0,0,1,0,1.268,1.266,1.266,0,0,1-1.266,2.535" transform="translate(231.288 136.064)" fill="#937bff"/>
      <path id="Fill_279" data-name="Fill 279" d="M-1.266,2.535A1.267,1.267,0,0,1-2.532,1.268,1.268,1.268,0,0,1-1.266,0,1.267,1.267,0,0,1,0,1.268,1.266,1.266,0,0,1-1.266,2.535" transform="translate(209.341 136.064)" fill="#937bff"/>
      <path id="Fill_295" data-name="Fill 295" d="M-1.266,2.535A1.268,1.268,0,0,1-2.532,1.268,1.267,1.267,0,0,1-1.266,0,1.267,1.267,0,0,1,0,1.268,1.267,1.267,0,0,1-1.266,2.535" transform="translate(287 158.037)" fill="#937bff"/>
      <path id="Fill_296" data-name="Fill 296" d="M-1.266,2.535A1.268,1.268,0,0,1-2.532,1.268,1.267,1.267,0,0,1-1.266,0,1.267,1.267,0,0,1,0,1.268,1.267,1.267,0,0,1-1.266,2.535" transform="translate(264.209 158.037)" fill="#937bff"/>
      <path id="Fill_297" data-name="Fill 297" d="M-1.266,2.535A1.267,1.267,0,0,1-2.532,1.268,1.267,1.267,0,0,1-1.266,0,1.267,1.267,0,0,1,0,1.268,1.268,1.268,0,0,1-1.266,2.535" transform="translate(242.262 158.037)" fill="#937bff"/>
      <path id="Fill_298" data-name="Fill 298" d="M-1.266,2.535A1.267,1.267,0,0,1-2.532,1.268,1.267,1.267,0,0,1-1.266,0,1.267,1.267,0,0,1,0,1.268,1.267,1.267,0,0,1-1.266,2.535" transform="translate(218.626 158.037)" fill="#937bff"/>
      <path id="Fill_299" data-name="Fill 299" d="M-1.266,2.535A1.267,1.267,0,0,1-2.532,1.268,1.267,1.267,0,0,1-1.266,0,1.267,1.267,0,0,1,0,1.268,1.267,1.267,0,0,1-1.266,2.535" transform="translate(200.9 158.882)" fill="#937bff"/>
      <path id="Fill_316" data-name="Fill 316" d="M-1.266,2.535A1.267,1.267,0,0,1-2.532,1.268,1.267,1.267,0,0,1-1.266,0,1.267,1.267,0,0,1,0,1.268,1.267,1.267,0,0,1-1.266,2.535" transform="translate(276.026 181.7)" fill="#937bff"/>
      <path id="Fill_317" data-name="Fill 317" d="M-1.266,2.535A1.267,1.267,0,0,1-2.532,1.268,1.267,1.267,0,0,1-1.266,0,1.267,1.267,0,0,1,0,1.268,1.267,1.267,0,0,1-1.266,2.535" transform="translate(253.235 181.7)" fill="#937bff"/>
      <path id="Fill_318" data-name="Fill 318" d="M-1.266,2.535A1.268,1.268,0,0,1-2.532,1.268,1.267,1.267,0,0,1-1.266,0,1.267,1.267,0,0,1,0,1.268,1.267,1.267,0,0,1-1.266,2.535" transform="translate(231.288 181.7)" fill="#937bff"/>
      <path id="Fill_319" data-name="Fill 319" d="M-1.266,2.535A1.268,1.268,0,0,1-2.532,1.268,1.267,1.267,0,0,1-1.266,0,1.267,1.267,0,0,1,0,1.268,1.267,1.267,0,0,1-1.266,2.535" transform="translate(209.341 181.7)" fill="#937bff"/>
      <path id="Fill_335" data-name="Fill 335" d="M-1.266,2.535A1.268,1.268,0,0,1-2.532,1.268,1.267,1.267,0,0,1-1.266,0,1.267,1.267,0,0,1,0,1.268,1.267,1.267,0,0,1-1.266,2.535" transform="translate(287 203.673)" fill="#937bff"/>
      <path id="Fill_336" data-name="Fill 336" d="M-1.266,2.535A1.268,1.268,0,0,1-2.532,1.268,1.267,1.267,0,0,1-1.266,0,1.267,1.267,0,0,1,0,1.268,1.267,1.267,0,0,1-1.266,2.535" transform="translate(264.209 203.673)" fill="#937bff"/>
      <path id="Fill_337" data-name="Fill 337" d="M-1.266,2.535A1.267,1.267,0,0,1-2.532,1.268,1.267,1.267,0,0,1-1.266,0,1.267,1.267,0,0,1,0,1.268,1.268,1.268,0,0,1-1.266,2.535" transform="translate(242.262 203.673)" fill="#937bff"/>
      <path id="Fill_338" data-name="Fill 338" d="M-1.266,2.535A1.267,1.267,0,0,1-2.532,1.268,1.267,1.267,0,0,1-1.266,0,1.267,1.267,0,0,1,0,1.268,1.267,1.267,0,0,1-1.266,2.535" transform="translate(218.626 203.673)" fill="#937bff"/>
      <path id="Fill_339" data-name="Fill 339" d="M-1.266,2.535A1.267,1.267,0,0,1-2.532,1.268,1.267,1.267,0,0,1-1.266,0,1.267,1.267,0,0,1,0,1.268,1.267,1.267,0,0,1-1.266,2.535" transform="translate(200.9 203.673)" fill="#937bff"/>
      <path id="Fill_356" data-name="Fill 356" d="M-1.266,2.535A1.266,1.266,0,0,1-2.532,1.268,1.267,1.267,0,0,1-1.266,0,1.267,1.267,0,0,1,0,1.268,1.266,1.266,0,0,1-1.266,2.535" transform="translate(276.026 225.646)" fill="#937bff"/>
      <path id="Fill_357" data-name="Fill 357" d="M-1.266,2.535A1.266,1.266,0,0,1-2.532,1.268,1.267,1.267,0,0,1-1.266,0,1.267,1.267,0,0,1,0,1.268,1.266,1.266,0,0,1-1.266,2.535" transform="translate(253.235 225.646)" fill="#937bff"/>
      <path id="Fill_358" data-name="Fill 358" d="M-1.266,2.535A1.266,1.266,0,0,1-2.532,1.268,1.267,1.267,0,0,1-1.266,0,1.267,1.267,0,0,1,0,1.268,1.266,1.266,0,0,1-1.266,2.535" transform="translate(231.288 225.646)" fill="#937bff"/>
      <path id="Fill_359" data-name="Fill 359" d="M-1.266,2.535A1.267,1.267,0,0,1-2.532,1.268,1.268,1.268,0,0,1-1.266,0,1.267,1.267,0,0,1,0,1.268,1.266,1.266,0,0,1-1.266,2.535" transform="translate(200.9 225.646)" fill="#937bff"/>
      <path id="Fill_375" data-name="Fill 375" d="M-1.266,2.535A1.266,1.266,0,0,1-2.532,1.268,1.267,1.267,0,0,1-1.266,0,1.267,1.267,0,0,1,0,1.268,1.266,1.266,0,0,1-1.266,2.535" transform="translate(287 248.465)" fill="#937bff"/>
      <path id="Fill_376" data-name="Fill 376" d="M-1.266,2.535A1.267,1.267,0,0,1-2.532,1.268,1.268,1.268,0,0,1-1.266,0,1.267,1.267,0,0,1,0,1.268,1.266,1.266,0,0,1-1.266,2.535" transform="translate(264.209 248.465)" fill="#937bff"/>
      <path id="Fill_377" data-name="Fill 377" d="M-1.266,2.535A1.266,1.266,0,0,1-2.532,1.268,1.267,1.267,0,0,1-1.266,0,1.268,1.268,0,0,1,0,1.268,1.267,1.267,0,0,1-1.266,2.535" transform="translate(242.262 248.465)" fill="#937bff"/>
      <path id="Fill_378" data-name="Fill 378" d="M-1.266,2.535A1.266,1.266,0,0,1-2.532,1.268,1.267,1.267,0,0,1-1.266,0,1.267,1.267,0,0,1,0,1.268,1.266,1.266,0,0,1-1.266,2.535" transform="translate(218.626 248.465)" fill="#937bff"/>
      <path id="Fill_379" data-name="Fill 379" d="M-1.266,2.535A1.266,1.266,0,0,1-2.532,1.268,1.267,1.267,0,0,1-1.266,0,1.267,1.267,0,0,1,0,1.268,1.266,1.266,0,0,1-1.266,2.535" transform="translate(200.9 248.465)" fill="#937bff"/>
      <path id="Fill_156-2" data-name="Fill 156" d="M-1.266,2.535A1.266,1.266,0,0,1-2.532,1.268,1.267,1.267,0,0,1-1.266,0,1.267,1.267,0,0,1,0,1.268,1.266,1.266,0,0,1-1.266,2.535" transform="translate(177.265)" fill="#937bff"/>
      <path id="Fill_157-2" data-name="Fill 157" d="M-1.266,2.535A1.266,1.266,0,0,1-2.532,1.268,1.267,1.267,0,0,1-1.266,0,1.267,1.267,0,0,1,0,1.268,1.266,1.266,0,0,1-1.266,2.535" transform="translate(154.474)" fill="#937bff"/>
      <path id="Fill_158-2" data-name="Fill 158" d="M-1.266,2.535A1.266,1.266,0,0,1-2.532,1.268,1.267,1.267,0,0,1-1.266,0,1.267,1.267,0,0,1,0,1.268,1.266,1.266,0,0,1-1.266,2.535" transform="translate(132.526)" fill="#937bff"/>
      <path id="Fill_159-2" data-name="Fill 159" d="M-1.266,2.535A1.267,1.267,0,0,1-2.532,1.268,1.268,1.268,0,0,1-1.266,0,1.267,1.267,0,0,1,0,1.268,1.266,1.266,0,0,1-1.266,2.535" transform="translate(110.579)" fill="#937bff"/>
      <path id="Fill_175-2" data-name="Fill 175" d="M-1.266,2.535A1.266,1.266,0,0,1-2.532,1.268,1.267,1.267,0,0,1-1.266,0,1.267,1.267,0,0,1,0,1.268,1.266,1.266,0,0,1-1.266,2.535" transform="translate(188.238 21.973)" fill="#937bff"/>
      <path id="Fill_176-2" data-name="Fill 176" d="M-1.266,2.535A1.267,1.267,0,0,1-2.532,1.268,1.268,1.268,0,0,1-1.266,0,1.267,1.267,0,0,1,0,1.268,1.266,1.266,0,0,1-1.266,2.535" transform="translate(165.447 21.973)" fill="#937bff"/>
      <path id="Fill_177-2" data-name="Fill 177" d="M-1.266,2.535A1.266,1.266,0,0,1-2.532,1.268,1.267,1.267,0,0,1-1.266,0,1.268,1.268,0,0,1,0,1.268,1.267,1.267,0,0,1-1.266,2.535" transform="translate(142.656 21.973)" fill="#937bff"/>
      <path id="Fill_178-2" data-name="Fill 178" d="M-1.266,2.535A1.266,1.266,0,0,1-2.532,1.268,1.267,1.267,0,0,1-1.266,0,1.267,1.267,0,0,1,0,1.268,1.266,1.266,0,0,1-1.266,2.535" transform="translate(119.865 21.973)" fill="#937bff"/>
      <path id="Fill_179-2" data-name="Fill 179" d="M-1.266,2.535A1.266,1.266,0,0,1-2.532,1.268,1.267,1.267,0,0,1-1.266,0,1.267,1.267,0,0,1,0,1.268,1.266,1.266,0,0,1-1.266,2.535" transform="translate(101.294 21.973)" fill="#937bff"/>
      <path id="Fill_196-2" data-name="Fill 196" d="M-1.266,2.535A1.267,1.267,0,0,1-2.532,1.268,1.267,1.267,0,0,1-1.266,0,1.267,1.267,0,0,1,0,1.268,1.267,1.267,0,0,1-1.266,2.535" transform="translate(177.265 45.636)" fill="#937bff"/>
      <path id="Fill_197-2" data-name="Fill 197" d="M-1.266,2.535A1.267,1.267,0,0,1-2.532,1.268,1.267,1.267,0,0,1-1.266,0,1.267,1.267,0,0,1,0,1.268,1.267,1.267,0,0,1-1.266,2.535" transform="translate(154.474 45.636)" fill="#937bff"/>
      <path id="Fill_198-2" data-name="Fill 198" d="M-1.266,2.535A1.268,1.268,0,0,1-2.532,1.268,1.267,1.267,0,0,1-1.266,0,1.267,1.267,0,0,1,0,1.268,1.267,1.267,0,0,1-1.266,2.535" transform="translate(132.526 45.636)" fill="#937bff"/>
      <path id="Fill_199-2" data-name="Fill 199" d="M-1.266,2.535A1.268,1.268,0,0,1-2.532,1.268,1.267,1.267,0,0,1-1.266,0,1.267,1.267,0,0,1,0,1.268,1.267,1.267,0,0,1-1.266,2.535" transform="translate(110.579 45.636)" fill="#937bff"/>
      <path id="Fill_215-2" data-name="Fill 215" d="M-1.266,2.535A1.268,1.268,0,0,1-2.532,1.268,1.267,1.267,0,0,1-1.266,0,1.267,1.267,0,0,1,0,1.268,1.267,1.267,0,0,1-1.266,2.535" transform="translate(188.238 67.609)" fill="#937bff"/>
      <path id="Fill_216-2" data-name="Fill 216" d="M-1.266,2.535A1.268,1.268,0,0,1-2.532,1.268,1.267,1.267,0,0,1-1.266,0,1.267,1.267,0,0,1,0,1.268,1.267,1.267,0,0,1-1.266,2.535" transform="translate(165.447 67.609)" fill="#937bff"/>
      <path id="Fill_217-2" data-name="Fill 217" d="M-1.266,2.535A1.267,1.267,0,0,1-2.532,1.268,1.267,1.267,0,0,1-1.266,0,1.267,1.267,0,0,1,0,1.268,1.268,1.268,0,0,1-1.266,2.535" transform="translate(142.656 67.609)" fill="#937bff"/>
      <path id="Fill_218-2" data-name="Fill 218" d="M-1.266,2.535A1.267,1.267,0,0,1-2.532,1.268,1.267,1.267,0,0,1-1.266,0,1.267,1.267,0,0,1,0,1.268,1.267,1.267,0,0,1-1.266,2.535" transform="translate(119.865 67.609)" fill="#937bff"/>
      <path id="Fill_219-2" data-name="Fill 219" d="M-1.266,2.535A1.267,1.267,0,0,1-2.532,1.268,1.267,1.267,0,0,1-1.266,0,1.267,1.267,0,0,1,0,1.268,1.267,1.267,0,0,1-1.266,2.535" transform="translate(101.294 67.609)" fill="#937bff"/>
      <path id="Fill_236-2" data-name="Fill 236" d="M-1.266,2.535A1.267,1.267,0,0,1-2.532,1.268,1.267,1.267,0,0,1-1.266,0,1.267,1.267,0,0,1,0,1.268,1.267,1.267,0,0,1-1.266,2.535" transform="translate(177.265 92.118)" fill="#937bff"/>
      <path id="Fill_237-2" data-name="Fill 237" d="M-1.266,2.535A1.267,1.267,0,0,1-2.532,1.268,1.267,1.267,0,0,1-1.266,0,1.267,1.267,0,0,1,0,1.268,1.267,1.267,0,0,1-1.266,2.535" transform="translate(154.474 92.118)" fill="#937bff"/>
      <path id="Fill_238-2" data-name="Fill 238" d="M-1.266,2.535A1.268,1.268,0,0,1-2.532,1.268,1.267,1.267,0,0,1-1.266,0,1.267,1.267,0,0,1,0,1.268,1.267,1.267,0,0,1-1.266,2.535" transform="translate(132.526 92.118)" fill="#937bff"/>
      <path id="Fill_239-2" data-name="Fill 239" d="M-1.266,2.535A1.268,1.268,0,0,1-2.532,1.268,1.267,1.267,0,0,1-1.266,0,1.267,1.267,0,0,1,0,1.268,1.267,1.267,0,0,1-1.266,2.535" transform="translate(110.579 92.118)" fill="#937bff"/>
      <path id="Fill_255-2" data-name="Fill 255" d="M-1.266,2.535A1.266,1.266,0,0,1-2.532,1.268,1.267,1.267,0,0,1-1.266,0,1.267,1.267,0,0,1,0,1.268,1.266,1.266,0,0,1-1.266,2.535" transform="translate(188.238 113.246)" fill="#937bff"/>
      <path id="Fill_256-2" data-name="Fill 256" d="M-1.266,2.535A1.267,1.267,0,0,1-2.532,1.268,1.268,1.268,0,0,1-1.266,0,1.267,1.267,0,0,1,0,1.268,1.266,1.266,0,0,1-1.266,2.535" transform="translate(165.447 113.246)" fill="#937bff"/>
      <path id="Fill_257-2" data-name="Fill 257" d="M-1.266,2.535A1.266,1.266,0,0,1-2.532,1.268,1.267,1.267,0,0,1-1.266,0,1.268,1.268,0,0,1,0,1.268,1.267,1.267,0,0,1-1.266,2.535" transform="translate(142.656 113.246)" fill="#937bff"/>
      <path id="Fill_258-2" data-name="Fill 258" d="M-1.266,2.535A1.266,1.266,0,0,1-2.532,1.268,1.267,1.267,0,0,1-1.266,0,1.267,1.267,0,0,1,0,1.268,1.266,1.266,0,0,1-1.266,2.535" transform="translate(119.865 113.246)" fill="#937bff"/>
      <path id="Fill_259-2" data-name="Fill 259" d="M-1.266,2.535A1.266,1.266,0,0,1-2.532,1.268,1.267,1.267,0,0,1-1.266,0,1.267,1.267,0,0,1,0,1.268,1.266,1.266,0,0,1-1.266,2.535" transform="translate(101.294 113.246)" fill="#937bff"/>
      <path id="Fill_276-2" data-name="Fill 276" d="M-1.266,2.535A1.266,1.266,0,0,1-2.532,1.268,1.267,1.267,0,0,1-1.266,0,1.267,1.267,0,0,1,0,1.268,1.266,1.266,0,0,1-1.266,2.535" transform="translate(177.265 136.064)" fill="#937bff"/>
      <path id="Fill_277-2" data-name="Fill 277" d="M-1.266,2.535A1.266,1.266,0,0,1-2.532,1.268,1.267,1.267,0,0,1-1.266,0,1.267,1.267,0,0,1,0,1.268,1.266,1.266,0,0,1-1.266,2.535" transform="translate(154.474 136.064)" fill="#937bff"/>
      <path id="Fill_278-2" data-name="Fill 278" d="M-1.266,2.535A1.266,1.266,0,0,1-2.532,1.268,1.267,1.267,0,0,1-1.266,0,1.267,1.267,0,0,1,0,1.268,1.266,1.266,0,0,1-1.266,2.535" transform="translate(132.526 136.064)" fill="#937bff"/>
      <path id="Fill_279-2" data-name="Fill 279" d="M-1.266,2.535A1.267,1.267,0,0,1-2.532,1.268,1.268,1.268,0,0,1-1.266,0,1.267,1.267,0,0,1,0,1.268,1.266,1.266,0,0,1-1.266,2.535" transform="translate(110.579 136.064)" fill="#937bff"/>
      <path id="Fill_295-2" data-name="Fill 295" d="M-1.266,2.535A1.268,1.268,0,0,1-2.532,1.268,1.267,1.267,0,0,1-1.266,0,1.267,1.267,0,0,1,0,1.268,1.267,1.267,0,0,1-1.266,2.535" transform="translate(188.238 158.037)" fill="#937bff"/>
      <path id="Fill_296-2" data-name="Fill 296" d="M-1.266,2.535A1.268,1.268,0,0,1-2.532,1.268,1.267,1.267,0,0,1-1.266,0,1.267,1.267,0,0,1,0,1.268,1.267,1.267,0,0,1-1.266,2.535" transform="translate(165.447 158.037)" fill="#937bff"/>
      <path id="Fill_297-2" data-name="Fill 297" d="M-1.266,2.535A1.267,1.267,0,0,1-2.532,1.268,1.267,1.267,0,0,1-1.266,0,1.267,1.267,0,0,1,0,1.268,1.268,1.268,0,0,1-1.266,2.535" transform="translate(142.656 158.037)" fill="#937bff"/>
      <path id="Fill_298-2" data-name="Fill 298" d="M-1.266,2.535A1.267,1.267,0,0,1-2.532,1.268,1.267,1.267,0,0,1-1.266,0,1.267,1.267,0,0,1,0,1.268,1.267,1.267,0,0,1-1.266,2.535" transform="translate(119.865 158.037)" fill="#937bff"/>
      <path id="Fill_299-2" data-name="Fill 299" d="M-1.266,2.535A1.267,1.267,0,0,1-2.532,1.268,1.267,1.267,0,0,1-1.266,0,1.267,1.267,0,0,1,0,1.268,1.267,1.267,0,0,1-1.266,2.535" transform="translate(101.294 158.882)" fill="#937bff"/>
      <path id="Fill_316-2" data-name="Fill 316" d="M-1.266,2.535A1.267,1.267,0,0,1-2.532,1.268,1.267,1.267,0,0,1-1.266,0,1.267,1.267,0,0,1,0,1.268,1.267,1.267,0,0,1-1.266,2.535" transform="translate(177.265 181.7)" fill="#937bff"/>
      <path id="Fill_317-2" data-name="Fill 317" d="M-1.266,2.535A1.267,1.267,0,0,1-2.532,1.268,1.267,1.267,0,0,1-1.266,0,1.267,1.267,0,0,1,0,1.268,1.267,1.267,0,0,1-1.266,2.535" transform="translate(154.474 181.7)" fill="#937bff"/>
      <path id="Fill_318-2" data-name="Fill 318" d="M-1.266,2.535A1.268,1.268,0,0,1-2.532,1.268,1.267,1.267,0,0,1-1.266,0,1.267,1.267,0,0,1,0,1.268,1.267,1.267,0,0,1-1.266,2.535" transform="translate(132.526 181.7)" fill="#937bff"/>
      <path id="Fill_319-2" data-name="Fill 319" d="M-1.266,2.535A1.268,1.268,0,0,1-2.532,1.268,1.267,1.267,0,0,1-1.266,0,1.267,1.267,0,0,1,0,1.268,1.267,1.267,0,0,1-1.266,2.535" transform="translate(110.579 181.7)" fill="#937bff"/>
      <path id="Fill_335-2" data-name="Fill 335" d="M-1.266,2.535A1.268,1.268,0,0,1-2.532,1.268,1.267,1.267,0,0,1-1.266,0,1.267,1.267,0,0,1,0,1.268,1.267,1.267,0,0,1-1.266,2.535" transform="translate(188.238 203.673)" fill="#937bff"/>
      <path id="Fill_336-2" data-name="Fill 336" d="M-1.266,2.535A1.268,1.268,0,0,1-2.532,1.268,1.267,1.267,0,0,1-1.266,0,1.267,1.267,0,0,1,0,1.268,1.267,1.267,0,0,1-1.266,2.535" transform="translate(165.447 203.673)" fill="#937bff"/>
      <path id="Fill_337-2" data-name="Fill 337" d="M-1.266,2.535A1.267,1.267,0,0,1-2.532,1.268,1.267,1.267,0,0,1-1.266,0,1.267,1.267,0,0,1,0,1.268,1.268,1.268,0,0,1-1.266,2.535" transform="translate(142.656 203.673)" fill="#937bff"/>
      <path id="Fill_338-2" data-name="Fill 338" d="M-1.266,2.535A1.267,1.267,0,0,1-2.532,1.268,1.267,1.267,0,0,1-1.266,0,1.267,1.267,0,0,1,0,1.268,1.267,1.267,0,0,1-1.266,2.535" transform="translate(119.865 203.673)" fill="#937bff"/>
      <path id="Fill_339-2" data-name="Fill 339" d="M-1.266,2.535A1.267,1.267,0,0,1-2.532,1.268,1.267,1.267,0,0,1-1.266,0,1.267,1.267,0,0,1,0,1.268,1.267,1.267,0,0,1-1.266,2.535" transform="translate(101.294 203.673)" fill="#937bff"/>
      <path id="Fill_356-2" data-name="Fill 356" d="M-1.266,2.535A1.266,1.266,0,0,1-2.532,1.268,1.267,1.267,0,0,1-1.266,0,1.267,1.267,0,0,1,0,1.268,1.266,1.266,0,0,1-1.266,2.535" transform="translate(177.265 225.646)" fill="#937bff"/>
      <path id="Fill_357-2" data-name="Fill 357" d="M-1.266,2.535A1.266,1.266,0,0,1-2.532,1.268,1.267,1.267,0,0,1-1.266,0,1.267,1.267,0,0,1,0,1.268,1.266,1.266,0,0,1-1.266,2.535" transform="translate(154.474 225.646)" fill="#937bff"/>
      <path id="Fill_358-2" data-name="Fill 358" d="M-1.266,2.535A1.266,1.266,0,0,1-2.532,1.268,1.267,1.267,0,0,1-1.266,0,1.267,1.267,0,0,1,0,1.268,1.266,1.266,0,0,1-1.266,2.535" transform="translate(132.526 225.646)" fill="#937bff"/>
      <path id="Fill_359-2" data-name="Fill 359" d="M-1.266,2.535A1.267,1.267,0,0,1-2.532,1.268,1.268,1.268,0,0,1-1.266,0,1.267,1.267,0,0,1,0,1.268,1.266,1.266,0,0,1-1.266,2.535" transform="translate(101.294 225.646)" fill="#937bff"/>
      <path id="Fill_375-2" data-name="Fill 375" d="M-1.266,2.535A1.266,1.266,0,0,1-2.532,1.268,1.267,1.267,0,0,1-1.266,0,1.267,1.267,0,0,1,0,1.268,1.266,1.266,0,0,1-1.266,2.535" transform="translate(188.238 248.465)" fill="#937bff"/>
      <path id="Fill_376-2" data-name="Fill 376" d="M-1.266,2.535A1.267,1.267,0,0,1-2.532,1.268,1.268,1.268,0,0,1-1.266,0,1.267,1.267,0,0,1,0,1.268,1.266,1.266,0,0,1-1.266,2.535" transform="translate(165.447 248.465)" fill="#937bff"/>
      <path id="Fill_377-2" data-name="Fill 377" d="M-1.266,2.535A1.266,1.266,0,0,1-2.532,1.268,1.267,1.267,0,0,1-1.266,0,1.268,1.268,0,0,1,0,1.268,1.267,1.267,0,0,1-1.266,2.535" transform="translate(142.656 248.465)" fill="#937bff"/>
      <path id="Fill_378-2" data-name="Fill 378" d="M-1.266,2.535A1.266,1.266,0,0,1-2.532,1.268,1.267,1.267,0,0,1-1.266,0,1.267,1.267,0,0,1,0,1.268,1.266,1.266,0,0,1-1.266,2.535" transform="translate(119.865 248.465)" fill="#937bff"/>
      <path id="Fill_379-2" data-name="Fill 379" d="M-1.266,2.535A1.266,1.266,0,0,1-2.532,1.268,1.267,1.267,0,0,1-1.266,0,1.267,1.267,0,0,1,0,1.268,1.266,1.266,0,0,1-1.266,2.535" transform="translate(101.294 248.465)" fill="#937bff"/>
      <path id="Fill_156-3" data-name="Fill 156" d="M-1.266,2.535A1.266,1.266,0,0,1-2.532,1.268,1.267,1.267,0,0,1-1.266,0,1.267,1.267,0,0,1,0,1.268,1.266,1.266,0,0,1-1.266,2.535" transform="translate(78.503)" fill="#937bff"/>
      <path id="Fill_157-3" data-name="Fill 157" d="M-1.266,2.535A1.266,1.266,0,0,1-2.532,1.268,1.267,1.267,0,0,1-1.266,0,1.267,1.267,0,0,1,0,1.268,1.266,1.266,0,0,1-1.266,2.535" transform="translate(55.712)" fill="#937bff"/>
      <path id="Fill_158-3" data-name="Fill 158" d="M-1.266,2.535A1.266,1.266,0,0,1-2.532,1.268,1.267,1.267,0,0,1-1.266,0,1.267,1.267,0,0,1,0,1.268,1.266,1.266,0,0,1-1.266,2.535" transform="translate(32.921)" fill="#937bff"/>
      <path id="Fill_159-3" data-name="Fill 159" d="M-1.266,2.535A1.267,1.267,0,0,1-2.532,1.268,1.268,1.268,0,0,1-1.266,0,1.267,1.267,0,0,1,0,1.268,1.266,1.266,0,0,1-1.266,2.535" transform="translate(11.818)" fill="#937bff"/>
      <path id="Fill_175-3" data-name="Fill 175" d="M-1.266,2.535A1.266,1.266,0,0,1-2.532,1.268,1.267,1.267,0,0,1-1.266,0,1.267,1.267,0,0,1,0,1.268,1.266,1.266,0,0,1-1.266,2.535" transform="translate(88.632 21.973)" fill="#937bff"/>
      <path id="Fill_176-3" data-name="Fill 176" d="M-1.266,2.535A1.267,1.267,0,0,1-2.532,1.268,1.268,1.268,0,0,1-1.266,0,1.267,1.267,0,0,1,0,1.268,1.266,1.266,0,0,1-1.266,2.535" transform="translate(66.685 21.973)" fill="#937bff"/>
      <path id="Fill_177-3" data-name="Fill 177" d="M-1.266,2.535A1.266,1.266,0,0,1-2.532,1.268,1.267,1.267,0,0,1-1.266,0,1.268,1.268,0,0,1,0,1.268,1.267,1.267,0,0,1-1.266,2.535" transform="translate(43.894 21.973)" fill="#937bff"/>
      <path id="Fill_178-3" data-name="Fill 178" d="M-1.266,2.535A1.266,1.266,0,0,1-2.532,1.268,1.267,1.267,0,0,1-1.266,0,1.267,1.267,0,0,1,0,1.268,1.266,1.266,0,0,1-1.266,2.535" transform="translate(20.259 21.973)" fill="#937bff"/>
      <path id="Fill_179-3" data-name="Fill 179" d="M-1.266,2.535A1.266,1.266,0,0,1-2.532,1.268,1.267,1.267,0,0,1-1.266,0,1.267,1.267,0,0,1,0,1.268,1.266,1.266,0,0,1-1.266,2.535" transform="translate(2.532 21.973)" fill="#937bff"/>
      <path id="Fill_196-3" data-name="Fill 196" d="M-1.266,2.535A1.267,1.267,0,0,1-2.532,1.268,1.267,1.267,0,0,1-1.266,0,1.267,1.267,0,0,1,0,1.268,1.267,1.267,0,0,1-1.266,2.535" transform="translate(78.503 45.636)" fill="#937bff"/>
      <path id="Fill_197-3" data-name="Fill 197" d="M-1.266,2.535A1.267,1.267,0,0,1-2.532,1.268,1.267,1.267,0,0,1-1.266,0,1.267,1.267,0,0,1,0,1.268,1.267,1.267,0,0,1-1.266,2.535" transform="translate(55.712 45.636)" fill="#937bff"/>
      <path id="Fill_198-3" data-name="Fill 198" d="M-1.266,2.535A1.268,1.268,0,0,1-2.532,1.268,1.267,1.267,0,0,1-1.266,0,1.267,1.267,0,0,1,0,1.268,1.267,1.267,0,0,1-1.266,2.535" transform="translate(32.921 45.636)" fill="#937bff"/>
      <path id="Fill_199-3" data-name="Fill 199" d="M-1.266,2.535A1.268,1.268,0,0,1-2.532,1.268,1.267,1.267,0,0,1-1.266,0,1.267,1.267,0,0,1,0,1.268,1.267,1.267,0,0,1-1.266,2.535" transform="translate(11.818 45.636)" fill="#937bff"/>
      <path id="Fill_215-3" data-name="Fill 215" d="M-1.266,2.535A1.268,1.268,0,0,1-2.532,1.268,1.267,1.267,0,0,1-1.266,0,1.267,1.267,0,0,1,0,1.268,1.267,1.267,0,0,1-1.266,2.535" transform="translate(88.632 67.609)" fill="#937bff"/>
      <path id="Fill_216-3" data-name="Fill 216" d="M-1.266,2.535A1.268,1.268,0,0,1-2.532,1.268,1.267,1.267,0,0,1-1.266,0,1.267,1.267,0,0,1,0,1.268,1.267,1.267,0,0,1-1.266,2.535" transform="translate(66.685 67.609)" fill="#937bff"/>
      <path id="Fill_217-3" data-name="Fill 217" d="M-1.266,2.535A1.267,1.267,0,0,1-2.532,1.268,1.267,1.267,0,0,1-1.266,0,1.267,1.267,0,0,1,0,1.268,1.268,1.268,0,0,1-1.266,2.535" transform="translate(43.894 67.609)" fill="#937bff"/>
      <path id="Fill_218-3" data-name="Fill 218" d="M-1.266,2.535A1.267,1.267,0,0,1-2.532,1.268,1.267,1.267,0,0,1-1.266,0,1.267,1.267,0,0,1,0,1.268,1.267,1.267,0,0,1-1.266,2.535" transform="translate(20.259 67.609)" fill="#937bff"/>
      <path id="Fill_219-3" data-name="Fill 219" d="M-1.266,2.535A1.267,1.267,0,0,1-2.532,1.268,1.267,1.267,0,0,1-1.266,0,1.267,1.267,0,0,1,0,1.268,1.267,1.267,0,0,1-1.266,2.535" transform="translate(2.532 67.609)" fill="#937bff"/>
      <path id="Fill_236-3" data-name="Fill 236" d="M-1.266,2.535A1.267,1.267,0,0,1-2.532,1.268,1.267,1.267,0,0,1-1.266,0,1.267,1.267,0,0,1,0,1.268,1.267,1.267,0,0,1-1.266,2.535" transform="translate(78.503 92.118)" fill="#937bff"/>
      <path id="Fill_237-3" data-name="Fill 237" d="M-1.266,2.535A1.267,1.267,0,0,1-2.532,1.268,1.267,1.267,0,0,1-1.266,0,1.267,1.267,0,0,1,0,1.268,1.267,1.267,0,0,1-1.266,2.535" transform="translate(55.712 92.118)" fill="#937bff"/>
      <path id="Fill_238-3" data-name="Fill 238" d="M-1.266,2.535A1.268,1.268,0,0,1-2.532,1.268,1.267,1.267,0,0,1-1.266,0,1.267,1.267,0,0,1,0,1.268,1.267,1.267,0,0,1-1.266,2.535" transform="translate(32.921 92.118)" fill="#937bff"/>
      <path id="Fill_239-3" data-name="Fill 239" d="M-1.266,2.535A1.268,1.268,0,0,1-2.532,1.268,1.267,1.267,0,0,1-1.266,0,1.267,1.267,0,0,1,0,1.268,1.267,1.267,0,0,1-1.266,2.535" transform="translate(11.818 92.118)" fill="#937bff"/>
      <path id="Fill_255-3" data-name="Fill 255" d="M-1.266,2.535A1.266,1.266,0,0,1-2.532,1.268,1.267,1.267,0,0,1-1.266,0,1.267,1.267,0,0,1,0,1.268,1.266,1.266,0,0,1-1.266,2.535" transform="translate(88.632 113.246)" fill="#937bff"/>
      <path id="Fill_256-3" data-name="Fill 256" d="M-1.266,2.535A1.267,1.267,0,0,1-2.532,1.268,1.268,1.268,0,0,1-1.266,0,1.267,1.267,0,0,1,0,1.268,1.266,1.266,0,0,1-1.266,2.535" transform="translate(66.685 113.246)" fill="#937bff"/>
      <path id="Fill_257-3" data-name="Fill 257" d="M-1.266,2.535A1.266,1.266,0,0,1-2.532,1.268,1.267,1.267,0,0,1-1.266,0,1.268,1.268,0,0,1,0,1.268,1.267,1.267,0,0,1-1.266,2.535" transform="translate(43.894 113.246)" fill="#937bff"/>
      <path id="Fill_258-3" data-name="Fill 258" d="M-1.266,2.535A1.266,1.266,0,0,1-2.532,1.268,1.267,1.267,0,0,1-1.266,0,1.267,1.267,0,0,1,0,1.268,1.266,1.266,0,0,1-1.266,2.535" transform="translate(20.259 113.246)" fill="#937bff"/>
      <path id="Fill_259-3" data-name="Fill 259" d="M-1.266,2.535A1.266,1.266,0,0,1-2.532,1.268,1.267,1.267,0,0,1-1.266,0,1.267,1.267,0,0,1,0,1.268,1.266,1.266,0,0,1-1.266,2.535" transform="translate(2.532 113.246)" fill="#937bff"/>
      <path id="Fill_276-3" data-name="Fill 276" d="M-1.266,2.535A1.266,1.266,0,0,1-2.532,1.268,1.267,1.267,0,0,1-1.266,0,1.267,1.267,0,0,1,0,1.268,1.266,1.266,0,0,1-1.266,2.535" transform="translate(78.503 136.064)" fill="#937bff"/>
      <path id="Fill_277-3" data-name="Fill 277" d="M-1.266,2.535A1.266,1.266,0,0,1-2.532,1.268,1.267,1.267,0,0,1-1.266,0,1.267,1.267,0,0,1,0,1.268,1.266,1.266,0,0,1-1.266,2.535" transform="translate(55.712 136.064)" fill="#937bff"/>
      <path id="Fill_278-3" data-name="Fill 278" d="M-1.266,2.535A1.266,1.266,0,0,1-2.532,1.268,1.267,1.267,0,0,1-1.266,0,1.267,1.267,0,0,1,0,1.268,1.266,1.266,0,0,1-1.266,2.535" transform="translate(32.921 136.064)" fill="#937bff"/>
      <path id="Fill_279-3" data-name="Fill 279" d="M-1.266,2.535A1.267,1.267,0,0,1-2.532,1.268,1.268,1.268,0,0,1-1.266,0,1.267,1.267,0,0,1,0,1.268,1.266,1.266,0,0,1-1.266,2.535" transform="translate(11.818 136.064)" fill="#937bff"/>
      <path id="Fill_295-3" data-name="Fill 295" d="M-1.266,2.535A1.268,1.268,0,0,1-2.532,1.268,1.267,1.267,0,0,1-1.266,0,1.267,1.267,0,0,1,0,1.268,1.267,1.267,0,0,1-1.266,2.535" transform="translate(88.632 158.037)" fill="#937bff"/>
      <path id="Fill_296-3" data-name="Fill 296" d="M-1.266,2.535A1.268,1.268,0,0,1-2.532,1.268,1.267,1.267,0,0,1-1.266,0,1.267,1.267,0,0,1,0,1.268,1.267,1.267,0,0,1-1.266,2.535" transform="translate(66.685 158.037)" fill="#937bff"/>
      <path id="Fill_297-3" data-name="Fill 297" d="M-1.266,2.535A1.267,1.267,0,0,1-2.532,1.268,1.267,1.267,0,0,1-1.266,0,1.267,1.267,0,0,1,0,1.268,1.268,1.268,0,0,1-1.266,2.535" transform="translate(43.894 158.037)" fill="#937bff"/>
      <path id="Fill_298-3" data-name="Fill 298" d="M-1.266,2.535A1.267,1.267,0,0,1-2.532,1.268,1.267,1.267,0,0,1-1.266,0,1.267,1.267,0,0,1,0,1.268,1.267,1.267,0,0,1-1.266,2.535" transform="translate(20.259 158.037)" fill="#937bff"/>
      <path id="Fill_299-3" data-name="Fill 299" d="M-1.266,2.535A1.267,1.267,0,0,1-2.532,1.268,1.267,1.267,0,0,1-1.266,0,1.267,1.267,0,0,1,0,1.268,1.267,1.267,0,0,1-1.266,2.535" transform="translate(2.532 158.882)" fill="#937bff"/>
      <path id="Fill_316-3" data-name="Fill 316" d="M-1.266,2.535A1.267,1.267,0,0,1-2.532,1.268,1.267,1.267,0,0,1-1.266,0,1.267,1.267,0,0,1,0,1.268,1.267,1.267,0,0,1-1.266,2.535" transform="translate(78.503 181.7)" fill="#937bff"/>
      <path id="Fill_317-3" data-name="Fill 317" d="M-1.266,2.535A1.267,1.267,0,0,1-2.532,1.268,1.267,1.267,0,0,1-1.266,0,1.267,1.267,0,0,1,0,1.268,1.267,1.267,0,0,1-1.266,2.535" transform="translate(55.712 181.7)" fill="#937bff"/>
      <path id="Fill_318-3" data-name="Fill 318" d="M-1.266,2.535A1.268,1.268,0,0,1-2.532,1.268,1.267,1.267,0,0,1-1.266,0,1.267,1.267,0,0,1,0,1.268,1.267,1.267,0,0,1-1.266,2.535" transform="translate(32.921 181.7)" fill="#937bff"/>
      <path id="Fill_319-3" data-name="Fill 319" d="M-1.266,2.535A1.268,1.268,0,0,1-2.532,1.268,1.267,1.267,0,0,1-1.266,0,1.267,1.267,0,0,1,0,1.268,1.267,1.267,0,0,1-1.266,2.535" transform="translate(11.818 181.7)" fill="#937bff"/>
      <path id="Fill_335-3" data-name="Fill 335" d="M-1.266,2.535A1.268,1.268,0,0,1-2.532,1.268,1.267,1.267,0,0,1-1.266,0,1.267,1.267,0,0,1,0,1.268,1.267,1.267,0,0,1-1.266,2.535" transform="translate(88.632 203.673)" fill="#937bff"/>
      <path id="Fill_336-3" data-name="Fill 336" d="M-1.266,2.535A1.268,1.268,0,0,1-2.532,1.268,1.267,1.267,0,0,1-1.266,0,1.267,1.267,0,0,1,0,1.268,1.267,1.267,0,0,1-1.266,2.535" transform="translate(66.685 203.673)" fill="#937bff"/>
      <path id="Fill_337-3" data-name="Fill 337" d="M-1.266,2.535A1.267,1.267,0,0,1-2.532,1.268,1.267,1.267,0,0,1-1.266,0,1.267,1.267,0,0,1,0,1.268,1.268,1.268,0,0,1-1.266,2.535" transform="translate(43.894 203.673)" fill="#937bff"/>
      <path id="Fill_338-3" data-name="Fill 338" d="M-1.266,2.535A1.267,1.267,0,0,1-2.532,1.268,1.267,1.267,0,0,1-1.266,0,1.267,1.267,0,0,1,0,1.268,1.267,1.267,0,0,1-1.266,2.535" transform="translate(20.259 203.673)" fill="#937bff"/>
      <path id="Fill_339-3" data-name="Fill 339" d="M-1.266,2.535A1.267,1.267,0,0,1-2.532,1.268,1.267,1.267,0,0,1-1.266,0,1.267,1.267,0,0,1,0,1.268,1.267,1.267,0,0,1-1.266,2.535" transform="translate(2.532 203.673)" fill="#937bff"/>
      <path id="Fill_356-3" data-name="Fill 356" d="M-1.266,2.535A1.266,1.266,0,0,1-2.532,1.268,1.267,1.267,0,0,1-1.266,0,1.267,1.267,0,0,1,0,1.268,1.266,1.266,0,0,1-1.266,2.535" transform="translate(78.503 225.646)" fill="#937bff"/>
      <path id="Fill_357-3" data-name="Fill 357" d="M-1.266,2.535A1.266,1.266,0,0,1-2.532,1.268,1.267,1.267,0,0,1-1.266,0,1.267,1.267,0,0,1,0,1.268,1.266,1.266,0,0,1-1.266,2.535" transform="translate(55.712 225.646)" fill="#937bff"/>
      <path id="Fill_358-3" data-name="Fill 358" d="M-1.266,2.535A1.266,1.266,0,0,1-2.532,1.268,1.267,1.267,0,0,1-1.266,0,1.267,1.267,0,0,1,0,1.268,1.266,1.266,0,0,1-1.266,2.535" transform="translate(32.921 225.646)" fill="#937bff"/>
      <path id="Fill_359-3" data-name="Fill 359" d="M-1.266,2.535A1.267,1.267,0,0,1-2.532,1.268,1.268,1.268,0,0,1-1.266,0,1.267,1.267,0,0,1,0,1.268,1.266,1.266,0,0,1-1.266,2.535" transform="translate(2.532 225.646)" fill="#937bff"/>
      <path id="Fill_375-3" data-name="Fill 375" d="M-1.266,2.535A1.266,1.266,0,0,1-2.532,1.268,1.267,1.267,0,0,1-1.266,0,1.267,1.267,0,0,1,0,1.268,1.266,1.266,0,0,1-1.266,2.535" transform="translate(88.632 248.465)" fill="#937bff"/>
      <path id="Fill_376-3" data-name="Fill 376" d="M-1.266,2.535A1.267,1.267,0,0,1-2.532,1.268,1.268,1.268,0,0,1-1.266,0,1.267,1.267,0,0,1,0,1.268,1.266,1.266,0,0,1-1.266,2.535" transform="translate(66.685 248.465)" fill="#937bff"/>
      <path id="Fill_377-3" data-name="Fill 377" d="M-1.266,2.535A1.266,1.266,0,0,1-2.532,1.268,1.267,1.267,0,0,1-1.266,0,1.268,1.268,0,0,1,0,1.268,1.267,1.267,0,0,1-1.266,2.535" transform="translate(43.894 248.465)" fill="#937bff"/>
      <path id="Fill_378-3" data-name="Fill 378" d="M-1.266,2.535A1.266,1.266,0,0,1-2.532,1.268,1.267,1.267,0,0,1-1.266,0,1.267,1.267,0,0,1,0,1.268,1.266,1.266,0,0,1-1.266,2.535" transform="translate(20.259 248.465)" fill="#937bff"/>
      <path id="Fill_379-3" data-name="Fill 379" d="M-1.266,2.535A1.266,1.266,0,0,1-2.532,1.268,1.267,1.267,0,0,1-1.266,0,1.267,1.267,0,0,1,0,1.268,1.266,1.266,0,0,1-1.266,2.535" transform="translate(2.532 248.465)" fill="#937bff"/>
    </g>
    <g id="Group_10_Copy" data-name="Group 10 Copy" transform="translate(67.227 224)">
      <rect id="Rectangle_Copy_5" data-name="Rectangle Copy 5" width="252" height="251.154" rx="89" transform="translate(0 0.319)" fill="#92bbfc"/>
      <text id="_140" data-name="140" transform="translate(75 151)" fill="#fff" font-size="63" font-family="SegoeUI, Segoe UI"><tspan x="0" y="0">140</tspan></text>
      <text id="Employee" transform="translate(55 179)" fill="#fff" font-size="31" font-family="SegoeUI, Segoe UI"><tspan x="0" y="0">Employee</tspan></text>
    </g>
    <g id="Group_14" data-name="Group 14" transform="translate(0.227 66)">
      <rect id="Rectangle_Copy_5-2" data-name="Rectangle Copy 5" width="198" height="198" rx="70" fill="#f990b6" opacity="0.715"/>
      <text id="_300_" data-name="300+" transform="translate(45 108)" fill="#fff" font-size="45" font-family="SegoeUI, Segoe UI"><tspan x="0" y="0">300+</tspan></text>
      <text id="Project" transform="translate(50.898 141.97)" fill="#fff" font-size="31" font-family="SegoeUI, Segoe UI"><tspan x="0" y="0">Project</tspan></text>
    </g>
    <g id="Group_10" data-name="Group 10" transform="translate(167.227 41)">
      <rect id="Rectangle_Copy_5-3" data-name="Rectangle Copy 5" width="252" height="251" rx="89" fill="#68def0" opacity="0.715"/>
      <text id="_14K_" data-name="14K+" transform="translate(59 143)" fill="#fff" font-size="63" font-family="SegoeUI, Segoe UI"><tspan x="0" y="0">14K+</tspan></text>
      <text id="User" transform="translate(82.678 178.172)" fill="#fff" font-size="41" font-family="SegoeUI, Segoe UI"><tspan x="0" y="0">User</tspan></text>
    </g>
    <circle id="Oval" cx="10.5" cy="10.5" r="10.5" transform="translate(15.227 340)" fill="#fcbc14"/>
    <circle id="Oval_Copy_2" data-name="Oval Copy 2" cx="7.5" cy="7.5" r="7.5" transform="translate(369.227 331)" fill="#917fe5"/>
    <circle id="Oval_Copy" data-name="Oval Copy" cx="19" cy="19" r="19" transform="translate(88.227)" fill="#9acf61"/>
  </g>
</svg>
